<svg version="1.1" id="Layer_1" xmlns="http://www.w3.org/2000/svg" xmlns:xlink="http://www.w3.org/1999/xlink" x="0px" y="0px"
	 width="100%" viewBox="0 0 1192 532" enable-background="new 0 0 1192 532" xml:space="preserve">
<path fill="#F9F9F9" opacity="1.000000" stroke="none" 
	d="
M785.000000,533.000000 
	C523.333435,533.000000 262.166809,533.000000 1.000175,533.000000 
	C1.000117,355.666809 1.000117,178.333588 1.000058,1.000294 
	C398.333099,1.000196 795.666199,1.000196 1192.999512,1.000098 
	C1192.999634,178.333023 1192.999634,355.666046 1192.999756,532.999512 
	C1057.166626,533.000000 921.333313,533.000000 785.000000,533.000000 
M908.786133,391.826019 
	C908.632751,391.878082 908.447754,391.894958 908.336975,391.994415 
	C908.261902,392.061829 908.241821,392.262634 908.281006,392.374390 
	C909.026672,394.500732 910.543091,395.883575 912.735474,395.126556 
	C914.240295,394.606964 915.412476,393.124176 916.733276,392.071899 
	C915.733948,390.819214 914.762512,389.542755 913.723267,388.324127 
	C913.217468,387.731049 912.584900,387.246002 912.009766,386.712036 
	C912.144775,386.315338 912.279785,385.918671 912.414795,385.521973 
	C913.912598,385.895264 915.410461,386.268555 918.036133,386.922974 
	C916.858826,385.372589 916.112366,383.791016 915.639099,383.868896 
	C913.469971,384.226013 911.127991,384.691742 909.398682,385.903961 
	C908.827820,386.304138 909.909424,389.061676 909.682800,391.253448 
	C909.497375,391.422852 909.311951,391.592285 908.786133,391.826019 
M780.725830,384.296906 
	C779.299194,384.117615 777.872559,383.938324 776.425781,383.756500 
	C776.425781,385.830292 776.425781,387.507446 776.425781,389.277222 
	C773.736816,386.974335 771.463379,385.027313 768.457947,382.453339 
	C768.177612,385.521790 768.049988,386.918610 768.019531,387.251892 
	C771.190918,390.455902 773.764587,393.056000 776.777527,396.099884 
	C777.358643,393.535339 777.591797,391.375946 778.366638,389.432495 
	C779.027588,387.774475 780.311035,386.364594 781.658936,385.436340 
	C781.581604,386.068237 781.504272,386.700134 781.362854,387.855347 
	C782.952515,386.678009 784.105713,385.823883 786.496399,384.053284 
	C785.099854,388.821625 784.106079,392.214722 783.177490,395.385254 
	C784.685730,395.385254 786.765503,395.385254 787.854492,395.385254 
	C788.479492,391.662994 789.030273,388.382507 789.766724,383.996643 
	C791.340027,385.798737 792.053772,386.616241 793.250671,387.987152 
	C793.423462,386.190643 793.529968,385.083649 793.709229,383.220245 
	C789.123535,383.854401 785.158875,384.402710 780.725830,384.296906 
M622.843750,395.477600 
	C624.639343,395.118317 626.434875,394.759033 629.066101,394.601868 
	C634.101257,396.720337 638.496399,396.134094 640.124268,393.093323 
	C638.396484,393.379547 636.669250,393.665680 634.942017,393.951813 
	C634.752502,393.308411 634.562988,392.664978 634.373535,392.021576 
	C635.794678,391.495544 637.215881,390.969543 638.890442,390.349731 
	C639.558228,388.685303 640.430664,386.510803 641.434998,384.007629 
	C638.015259,384.007629 635.077271,384.007629 632.142029,384.007629 
	C632.005493,385.816650 632.265198,387.725586 631.641479,389.280090 
	C630.869202,391.204834 629.364502,392.835693 627.518982,394.094910 
	C627.990295,390.743195 628.461670,387.391449 628.928589,384.070862 
	C627.775757,384.070862 625.996887,384.070862 624.217957,384.070862 
	C624.569702,384.371735 624.921387,384.672577 625.273071,384.973450 
	C624.367981,386.345337 623.462952,387.717255 622.557861,389.089142 
	C622.051758,388.791718 621.545593,388.494293 621.039490,388.196869 
	C621.530151,386.841003 622.020752,385.485107 622.524902,384.091858 
	C620.757874,384.091858 619.027344,384.091858 618.436707,384.091858 
	C617.413940,388.146851 616.507202,391.742035 615.487671,395.784363 
	C617.366699,395.472748 619.101990,395.184967 621.441162,394.951050 
	C621.643066,394.959198 621.844971,394.967377 622.843750,395.477600 
M703.718262,393.364624 
	C702.006653,393.364624 700.295044,393.364624 697.995605,393.364624 
	C698.948730,390.022278 699.796814,387.048462 700.661926,384.014923 
	C699.283264,384.014923 697.397278,384.014923 695.747437,384.014923 
	C695.016846,387.829803 697.072327,392.349945 691.440613,393.915710 
	C690.611145,392.747650 689.781738,391.579590 689.380432,391.014465 
	C690.343872,388.722015 691.050537,387.040527 691.757202,385.359070 
	C688.691711,384.654602 685.626221,383.950134 683.299011,383.415283 
	C682.171448,387.932617 681.255737,391.601135 680.347534,395.239807 
	C684.015259,395.239807 687.973022,395.239807 692.856262,395.271637 
	C696.736694,395.598389 700.762512,396.968719 704.528992,394.345490 
	C708.720154,396.552032 714.574707,395.907654 716.903381,392.497894 
	C717.966919,390.940613 718.775818,388.259796 718.132812,386.760864 
	C717.521729,385.336426 714.956787,384.440186 713.084412,383.955933 
	C711.290161,383.491852 709.281738,383.855713 707.329041,383.855713 
	C707.915344,389.270264 706.735596,392.659851 703.718262,393.364624 
M548.285217,394.531952 
	C547.520569,393.688995 546.755920,392.846039 546.035828,392.074860 
	C546.035828,392.074860 546.058716,392.156189 545.358643,391.593140 
	C545.358643,390.171844 545.358643,388.750549 545.358643,387.712830 
	C546.290955,386.787262 547.310608,385.775024 548.976562,384.121185 
	C544.589844,384.121185 541.681335,384.121185 539.574158,384.121185 
	C538.598145,388.218811 537.728882,391.867889 536.758057,395.943542 
	C540.733093,395.497681 544.873047,395.033325 549.601379,395.057159 
	C550.886963,395.215393 552.342773,395.829163 553.418823,395.426910 
	C555.105530,394.796417 556.872986,393.723846 557.889465,392.319672 
	C558.239624,391.835938 556.370300,389.840240 555.659241,388.460815 
	C555.171631,387.514984 554.933411,386.440613 554.583679,385.423706 
	C555.791748,385.919830 556.999817,386.415955 559.887451,387.601807 
	C558.519714,385.596985 557.956482,383.924408 557.224731,383.847076 
	C554.230713,383.530792 551.097351,383.636322 550.188782,387.478271 
	C549.676086,389.646057 549.403992,391.870728 548.285217,394.531952 
M890.322327,392.025208 
	C889.370850,391.968140 888.419312,391.911072 886.971741,391.824249 
	C890.239563,390.160217 890.377136,388.693481 886.939880,387.291229 
	C888.770569,386.300812 889.981934,385.645447 891.193359,384.990082 
	C891.112549,384.721161 891.031738,384.452209 890.950989,384.183289 
	C888.083130,384.183289 885.215271,384.183289 882.648987,384.183289 
	C882.580261,388.387665 883.037231,392.702576 878.420288,394.873230 
	C880.868286,389.360992 875.147644,393.454193 874.580261,391.243256 
	C879.428162,391.184448 878.296875,389.378632 875.867798,387.489624 
	C877.216064,386.817902 878.692627,386.082214 880.169189,385.346558 
	C879.949585,384.908508 879.730042,384.470459 879.510498,384.032410 
	C876.440796,384.032410 873.371094,384.032410 871.338196,384.032410 
	C870.380859,388.124908 869.520203,391.803894 868.667664,395.448456 
	C871.929138,395.448456 875.379517,395.448456 879.746704,394.955658 
	C883.482239,395.121704 887.217773,395.287750 891.833618,395.143860 
	C894.756775,395.111237 897.754700,395.477264 900.584473,394.946686 
	C904.252747,394.258881 906.281067,391.550110 905.993713,387.776428 
	C905.701843,383.943848 902.582092,383.906311 899.708008,383.842773 
	C897.965210,383.804260 896.220825,383.835663 895.276855,383.835663 
	C894.652588,387.136566 894.220703,389.778503 893.549438,392.358124 
	C893.489136,392.589722 891.879578,392.418182 890.322327,392.025208 
M840.499939,359.836670 
	C852.998718,359.885437 865.497620,359.910950 877.996277,359.987061 
	C924.019714,360.267426 969.902832,358.643860 1015.419556,350.950836 
	C1021.536682,349.916962 1025.943848,347.210571 1028.110352,341.932129 
	C1030.729736,335.550293 1033.106567,328.837372 1034.046021,322.054077 
	C1035.320068,312.855560 1035.073242,303.451202 1035.580078,294.140656 
	C1036.701660,273.533264 1039.231812,252.895493 1038.714600,232.332306 
	C1038.022827,204.822189 1030.565186,196.598190 1007.117188,188.100830 
	C995.004578,183.711304 982.283875,183.359177 969.625732,183.717697 
	C952.487305,184.203079 935.368652,185.347961 918.235046,186.052124 
	C894.763672,187.016724 871.284424,187.788773 847.811829,188.725113 
	C822.013000,189.754257 796.223328,191.622375 770.420044,191.809555 
	C707.772461,192.264069 645.117493,191.657303 582.468933,192.047501 
	C530.612244,192.370483 479.042297,197.123825 427.701904,204.277069 
	C421.335297,205.164108 414.913422,206.659943 408.915131,208.926773 
	C401.659180,211.668884 400.005432,216.204803 403.169495,223.248154 
	C405.332336,228.062637 408.449188,232.441803 411.023468,237.079987 
	C413.816132,242.111588 416.474182,247.217850 419.079895,252.084198 
	C424.342651,254.349564 429.935608,256.757050 435.933197,259.338715 
	C430.065521,268.062988 434.354828,276.020172 438.449493,284.351746 
	C434.718140,285.012695 431.637115,285.530884 428.567261,286.108582 
	C423.903717,286.986237 419.131622,288.140381 417.007477,292.860291 
	C415.732971,295.692261 414.329651,296.411804 411.393188,296.360809 
	C409.695679,296.331329 406.812714,297.621735 406.458405,298.879944 
	C404.993256,304.083069 402.311188,309.192322 403.763885,314.910706 
	C405.337616,321.105682 406.901611,327.303101 408.469849,333.499451 
	C408.997070,333.406342 409.524292,333.313232 410.051483,333.220123 
	C408.938812,335.191437 407.826141,337.162781 406.123932,340.178528 
	C416.003326,343.253387 425.118469,347.376007 434.632660,348.764862 
	C450.876984,351.136200 467.350983,352.168793 483.766541,353.071320 
	C502.882935,354.122314 522.042419,354.371399 541.178650,355.089935 
	C547.951111,355.344299 554.713013,359.500183 561.602112,354.334961 
	C561.894592,356.061493 562.076904,357.137512 562.150146,357.569855 
	C564.810608,358.538269 567.003662,359.704529 569.321228,360.061127 
	C571.099365,360.334717 573.270020,360.020599 574.833191,359.171112 
	C576.375000,358.333282 577.372620,356.493988 579.082153,354.558319 
	C578.847900,354.260498 578.072449,353.274597 577.218140,352.188385 
	C580.845703,349.553284 581.628052,352.668274 582.855408,354.888519 
	C584.053650,357.056183 585.290710,359.202393 586.034485,360.516541 
	C589.027039,357.842773 591.402832,355.720032 594.228271,353.195557 
	C595.992310,356.184296 597.313110,358.422180 598.490967,360.417877 
	C601.749939,359.751068 604.832031,358.410675 607.789368,358.645020 
	C617.645447,359.426117 627.270508,361.160126 637.405884,359.689056 
	C645.076904,358.575684 653.179688,360.879028 661.094727,360.926361 
	C690.743225,361.103607 720.394409,361.121033 750.042847,360.926971 
	C779.862915,360.731812 809.680969,360.213440 840.499939,359.836670 
M320.824219,173.161301 
	C317.699677,173.370895 314.343872,172.907776 311.485168,173.890594 
	C265.465546,189.712112 219.523239,205.758484 173.507355,221.591003 
	C170.390518,222.663406 170.092194,223.881119 171.087143,226.599579 
	C173.540924,233.303940 175.975525,240.027191 178.015366,246.862946 
	C178.532364,248.595413 178.243256,251.415176 177.125153,252.643967 
	C171.961044,258.319275 164.707886,256.701416 162.302261,249.641769 
	C159.854950,242.459808 157.403336,235.279297 154.862991,227.832565 
	C138.083588,233.696762 122.062920,239.739029 105.745674,244.830872 
	C96.084900,247.845520 89.844650,256.441254 94.463631,268.767853 
	C99.063805,281.044250 103.094116,293.537598 107.203590,305.992157 
	C108.271584,309.228943 109.636246,310.310242 113.294731,309.671021 
	C123.841080,307.828278 133.133728,313.154999 137.987930,323.208801 
	C142.219849,331.973755 139.922211,343.305267 132.347870,350.090424 
	C130.041092,352.156799 127.363869,353.809631 124.786377,355.703278 
	C124.983665,356.691986 125.067802,357.700317 125.387482,358.627411 
	C129.880844,371.658173 134.403061,384.678986 138.924942,397.699921 
	C142.785217,408.815735 150.267014,412.697540 161.484955,409.212708 
	C167.821350,407.244354 174.086868,405.042542 180.356827,402.866760 
	C190.983536,399.179016 201.588516,395.428619 212.764526,391.507416 
	C210.016632,383.979736 207.434143,376.836975 204.801605,369.712738 
	C202.179016,362.615356 202.478714,361.859711 209.161179,359.374695 
	C215.949341,356.850342 217.179153,357.454498 219.777786,364.483978 
	C222.355484,371.456879 224.965286,378.417908 227.703049,385.765320 
	C229.609879,385.292084 231.209167,385.021332 232.722763,384.501190 
	C277.787781,369.012909 322.844238,353.499695 367.902313,337.991150 
	C376.900085,334.894196 381.057953,327.593414 378.222382,318.383545 
	C374.266266,305.534027 369.575439,292.911896 365.531372,280.087646 
	C364.073273,275.463867 362.551300,273.296295 356.799683,273.897949 
	C344.998871,275.132324 335.940033,268.096954 332.650940,256.697571 
	C329.663818,246.344666 334.181305,235.278870 343.994476,229.988663 
	C346.809662,228.471039 347.327118,227.324799 346.247803,224.291260 
	C341.571808,211.149094 337.299194,197.864029 332.715363,184.688171 
	C330.830078,179.269104 327.381165,175.123001 320.824219,173.161301 
M648.603943,389.059326 
	C649.148987,391.216644 649.693970,393.373993 650.471375,396.451324 
	C652.551208,393.702545 654.035034,391.741425 655.842224,389.352966 
	C656.673401,391.794525 657.289124,393.603119 657.977783,395.626068 
	C664.537109,392.213135 655.945618,387.386017 660.236511,383.934143 
	C658.029297,383.934143 656.551147,383.934143 655.505493,383.934143 
	C654.661316,385.981415 653.899902,387.828033 653.138489,389.674652 
	C652.797363,389.562439 652.456177,389.450195 652.115051,389.337982 
	C652.016296,387.609528 651.917603,385.881104 651.810547,384.007874 
	C650.371582,384.007874 648.770569,384.007874 646.984558,384.007874 
	C647.470642,385.581635 647.894836,386.955139 648.603943,389.059326 
M530.204956,383.834808 
	C528.747192,383.903290 527.289490,383.971741 526.795776,383.994934 
	C525.877502,388.139313 525.075378,391.759521 524.279297,395.352325 
	C532.171570,396.039398 531.282776,395.623901 534.453064,388.842438 
	C536.969299,383.459991 534.159729,384.187622 530.204956,383.834808 
M736.734985,388.943298 
	C737.287292,391.108734 737.839661,393.274170 738.644287,396.428986 
	C740.739197,393.772461 742.278625,391.820343 744.064392,389.555847 
	C744.855652,391.824371 745.516113,393.717743 746.487854,396.503693 
	C748.095032,394.137604 749.167480,392.558838 750.239868,390.980072 
	C749.819641,391.001678 749.399475,391.023285 748.979248,391.044891 
	C748.240112,388.747314 747.500977,386.449738 746.717102,384.013306 
	C745.891846,384.013306 744.430115,384.013306 743.547546,384.013306 
	C742.796021,386.059723 742.164490,387.779419 741.532959,389.499084 
	C741.130127,389.416748 740.727356,389.334381 740.324524,389.252014 
	C740.165894,387.493469 740.007263,385.734894 739.831848,383.790192 
	C738.230408,383.884460 736.688049,383.975250 735.203186,384.062653 
	C735.722412,385.687286 736.118225,386.925659 736.734985,388.943298 
M837.828186,387.180603 
	C837.092102,389.919006 836.356018,392.657410 835.520264,395.766388 
	C838.334900,395.503174 841.198181,395.580231 843.869690,394.901947 
	C847.555237,393.966248 849.659485,390.886749 848.726135,387.449219 
	C848.286194,385.828735 844.939087,384.708435 842.708435,383.959961 
	C841.087158,383.415894 839.136414,383.853638 837.257568,383.853638 
	C837.541687,384.873322 837.749695,385.619751 837.828186,387.180603 
M666.422241,388.984253 
	C666.405396,389.955902 666.088867,391.048462 666.423584,391.878326 
	C667.868530,395.460724 670.744263,396.188141 674.159973,395.187042 
	C677.662781,394.160339 680.069946,389.763855 678.923462,386.597900 
	C677.484131,382.623291 674.035461,383.478455 671.377502,384.215271 
	C669.570496,384.716217 668.216309,386.850525 666.422241,388.984253 
M854.930786,392.868439 
	C854.358093,393.508667 853.785400,394.148926 853.138184,394.872437 
	C854.767456,394.872437 856.296631,394.872437 857.563843,394.872437 
	C857.563843,392.670532 857.563843,390.804382 857.563843,387.945374 
	C860.144287,391.132294 862.042603,393.476746 864.442627,396.440887 
	C865.741150,391.787842 866.805969,387.972351 867.904541,384.035767 
	C866.825684,384.035767 865.569641,384.035767 864.348572,384.035767 
	C864.348572,385.879425 864.348572,387.539368 864.348572,389.427216 
	C860.999756,387.849487 860.823303,382.279938 856.744690,384.004425 
	C856.048706,387.139679 855.501892,389.602997 854.930786,392.868439 
M793.807007,394.206512 
	C796.346497,394.265717 799.175781,395.054565 801.349060,394.191528 
	C803.828247,393.207092 804.088318,390.822418 801.473206,388.873413 
	C800.485535,388.137329 799.830139,386.955475 799.023254,385.976776 
	C800.412415,386.181213 801.801575,386.385651 803.637268,386.655823 
	C803.574646,385.925812 803.503357,384.097626 803.405212,384.096191 
	C801.305847,384.065308 799.016968,383.786377 797.172607,384.545715 
	C796.091125,384.990997 795.581299,387.104706 795.060425,388.556244 
	C794.488647,390.149506 794.199585,391.844269 793.807007,394.206512 
M610.253784,393.888153 
	C610.601807,390.939697 610.949829,387.991241 611.446838,383.780640 
	C613.173218,385.796997 613.854797,386.593109 614.847107,387.752167 
	C615.159241,386.320435 615.379089,385.311859 615.817139,383.302551 
	C611.311951,385.089050 606.239075,381.304962 603.301208,385.883057 
	C603.478271,386.399597 603.655273,386.916138 603.832336,387.432678 
	C604.831726,386.625275 605.831116,385.817871 606.830444,385.010468 
	C607.155823,385.171356 607.481201,385.332214 607.806519,385.493103 
	C606.856873,388.837341 605.907227,392.181580 604.791748,396.109833 
	C606.759277,395.572723 608.786682,395.019257 610.253784,393.888153 
M561.193176,394.578613 
	C563.341675,395.012726 565.490173,395.446838 566.750854,395.701538 
	C567.397583,391.563019 567.907532,388.299500 568.625427,383.705658 
	C570.345825,385.781372 571.005188,386.576935 571.664551,387.372498 
	C572.079041,386.906830 572.493530,386.441132 572.908020,385.975433 
	C571.942078,385.252960 571.033569,384.004456 570.001099,383.891846 
	C562.229248,383.044128 561.017700,383.570099 560.780762,387.397217 
	C561.914246,386.540802 563.000732,385.719910 564.087219,384.899017 
	C564.432251,385.085480 564.777283,385.271942 565.122253,385.458405 
	C564.009583,388.323029 562.896851,391.187683 561.193176,394.578613 
M762.500671,386.841461 
	C762.071899,385.869843 761.643066,384.898254 761.214233,383.926697 
	C760.260925,384.481506 758.983215,384.812592 758.416565,385.634125 
	C756.870056,387.875977 755.623657,390.324799 754.079041,393.002563 
	C756.090149,392.728577 757.754639,392.501801 759.822327,392.220093 
	C759.617188,393.491516 759.478821,394.349426 759.271362,395.635223 
	C761.236267,395.521729 763.102661,395.413910 764.758911,395.318268 
	C764.077454,392.512848 763.474792,390.031708 762.500671,386.841461 
M818.407410,390.705841 
	C817.819153,388.402313 817.230957,386.098816 816.218079,382.132538 
	C813.268372,386.399933 811.157104,389.454376 808.661682,393.064606 
	C811.095276,392.731750 812.760803,392.503937 814.824158,392.221741 
	C814.619446,393.497253 814.481934,394.354523 814.276123,395.637177 
	C816.243225,395.521118 818.106201,395.411194 819.984192,395.300415 
	C819.519348,393.738525 819.162598,392.539734 818.407410,390.705841 
M587.810425,389.073090 
	C589.836243,391.233002 591.862061,393.392944 594.728638,396.449310 
	C594.962280,392.931580 595.122070,390.526001 595.270935,388.284668 
	C594.825989,388.627258 594.116516,389.173553 593.471191,389.670502 
	C591.157288,387.583038 590.778259,382.919708 586.375732,384.003998 
	C585.914978,387.313171 585.524536,390.117676 585.134033,392.922180 
	C585.648315,392.981415 586.162537,393.040649 586.676758,393.099884 
	C586.846191,391.862122 587.015564,390.624390 587.810425,389.073090 
M832.971008,390.983643 
	C832.971008,389.733795 832.971008,388.483978 832.971008,386.708862 
	C831.902161,388.035492 831.202271,388.904205 830.584595,389.670776 
	C828.368774,387.113159 827.677185,382.949585 821.425476,384.482300 
	C824.946167,388.648346 827.902710,392.146820 831.465759,396.362946 
	C832.063965,394.319977 832.451599,392.996094 832.971008,390.983643 
M582.722168,385.598846 
	C583.126282,385.307434 583.539368,385.026855 583.921570,384.709106 
	C583.963379,384.674377 583.827576,384.426086 583.705261,384.084381 
	C581.920288,384.084381 580.069519,384.084381 579.213562,384.084381 
	C578.310547,388.132751 577.506104,391.739410 576.640137,395.621735 
	C578.128235,395.550385 579.850525,395.467804 580.859314,395.419434 
	C581.520081,391.939148 582.049988,389.148376 582.722168,385.598846 
z"/>
<path fill="#040404" opacity="1.000000" stroke="none" 
	d="
M839.999878,359.836670 
	C809.680969,360.213440 779.862915,360.731812 750.042847,360.926971 
	C720.394409,361.121033 690.743225,361.103607 661.094727,360.926361 
	C653.179688,360.879028 645.076904,358.575684 637.405884,359.689056 
	C627.270508,361.160126 617.645447,359.426117 607.789368,358.645020 
	C604.832031,358.410675 601.749939,359.751068 598.490967,360.417877 
	C597.313110,358.422180 595.992310,356.184296 594.228271,353.195557 
	C591.402832,355.720032 589.027039,357.842773 586.034485,360.516541 
	C585.290710,359.202393 584.053650,357.056183 582.855408,354.888519 
	C581.628052,352.668274 580.845703,349.553284 577.218140,352.188385 
	C578.072449,353.274597 578.847900,354.260498 579.082153,354.558319 
	C577.372620,356.493988 576.375000,358.333282 574.833191,359.171112 
	C573.270020,360.020599 571.099365,360.334717 569.321228,360.061127 
	C567.003662,359.704529 564.810608,358.538269 562.150146,357.569855 
	C562.076904,357.137512 561.894592,356.061493 561.602112,354.334961 
	C554.713013,359.500183 547.951111,355.344299 541.178650,355.089935 
	C522.042419,354.371399 502.882935,354.122314 483.766541,353.071320 
	C467.350983,352.168793 450.876984,351.136200 434.632660,348.764862 
	C425.118469,347.376007 416.003326,343.253387 406.123932,340.178528 
	C407.826141,337.162781 408.938812,335.191437 410.051483,333.220123 
	C409.524292,333.313232 408.997070,333.406342 408.469849,333.499451 
	C406.901611,327.303101 405.337616,321.105682 403.763885,314.910706 
	C402.311188,309.192322 404.993256,304.083069 406.458405,298.879944 
	C406.812714,297.621735 409.695679,296.331329 411.393188,296.360809 
	C414.329651,296.411804 415.732971,295.692261 417.007477,292.860291 
	C419.131622,288.140381 423.903717,286.986237 428.567261,286.108582 
	C431.637115,285.530884 434.718140,285.012695 438.449493,284.351746 
	C434.354828,276.020172 430.065521,268.062988 435.933197,259.338715 
	C429.935608,256.757050 424.342651,254.349564 419.079895,252.084198 
	C416.474182,247.217850 413.816132,242.111588 411.023468,237.079987 
	C408.449188,232.441803 405.332336,228.062637 403.169495,223.248154 
	C400.005432,216.204803 401.659180,211.668884 408.915131,208.926773 
	C414.913422,206.659943 421.335297,205.164108 427.701904,204.277069 
	C479.042297,197.123825 530.612244,192.370483 582.468933,192.047501 
	C645.117493,191.657303 707.772461,192.264069 770.420044,191.809555 
	C796.223328,191.622375 822.013000,189.754257 847.811829,188.725113 
	C871.284424,187.788773 894.763672,187.016724 918.235046,186.052124 
	C935.368652,185.347961 952.487305,184.203079 969.625732,183.717697 
	C982.283875,183.359177 995.004578,183.711304 1007.117188,188.100830 
	C1030.565186,196.598190 1038.022827,204.822189 1038.714600,232.332306 
	C1039.231812,252.895493 1036.701660,273.533264 1035.580078,294.140656 
	C1035.073242,303.451202 1035.320068,312.855560 1034.046021,322.054077 
	C1033.106567,328.837372 1030.729736,335.550293 1028.110352,341.932129 
	C1025.943848,347.210571 1021.536682,349.916962 1015.419556,350.950836 
	C969.902832,358.643860 924.019714,360.267426 877.996277,359.987061 
	C865.497620,359.910950 852.998718,359.885437 839.999878,359.836670 
M491.531464,240.507721 
	C491.531464,266.292358 491.531464,292.077026 491.531464,317.920898 
	C502.372437,317.920898 512.749084,318.653076 522.982178,317.752777 
	C539.159363,316.329529 551.229675,307.973480 558.401123,293.198578 
	C563.154785,283.404907 564.248840,273.037262 563.257568,262.201202 
	C561.816406,246.446228 550.695679,230.952637 535.173828,228.087814 
	C521.103516,225.490921 506.489349,225.840637 491.531525,224.852631 
	C491.531525,230.592514 491.531525,235.052658 491.531464,240.507721 
M939.505859,225.773422 
	C936.414429,225.773422 933.323059,225.773422 929.992004,225.773422 
	C929.992004,228.003830 929.992065,229.648117 929.992065,231.292389 
	C929.992004,249.609192 930.031494,267.926117 929.974426,286.242737 
	C929.947693,294.825623 926.091492,301.126678 919.972717,302.981567 
	C909.485840,306.160645 900.404785,300.528137 900.034851,289.509125 
	C899.392700,270.387573 899.642090,251.236008 899.521179,232.097015 
	C899.508728,230.131104 899.519531,228.165054 899.519531,226.154205 
	C892.838806,226.154205 886.631653,226.154205 880.206726,226.154205 
	C880.206726,246.490799 880.005859,266.450623 880.308533,286.402802 
	C880.424744,294.063782 881.921021,301.644653 887.133667,307.837524 
	C895.905396,318.258850 907.782227,319.776947 920.208191,318.739563 
	C938.155884,317.241211 948.823669,305.638550 949.013855,287.628845 
	C949.223083,267.816071 949.119263,247.999924 949.126465,228.185242 
	C949.126770,227.416702 948.863708,226.648056 948.703979,225.773422 
	C945.805908,225.773422 943.150452,225.773422 939.505859,225.773422 
M835.673035,247.313141 
	C838.791382,240.282913 841.909668,233.252670 845.229858,225.767212 
	C841.229797,225.767212 837.850098,226.160828 834.602600,225.673431 
	C829.923828,224.971222 827.805298,227.127121 826.086975,231.095139 
	C818.586731,248.415436 811.001648,265.701965 803.170410,282.874481 
	C800.180054,289.431793 799.001343,296.030975 800.263306,303.636963 
	C813.438232,303.636963 826.657166,303.636963 840.305664,303.636963 
	C840.305664,308.763519 840.305664,313.351562 840.305664,317.998962 
	C845.693542,317.998962 850.633301,317.998962 856.106567,317.998962 
	C856.106567,313.116180 856.106567,308.398926 856.106567,303.723328 
	C859.384460,303.547089 862.126404,303.399658 864.656372,303.263641 
	C864.656372,298.186523 864.656372,293.610107 864.656372,288.839172 
	C861.676697,288.839172 859.054138,288.839172 856.010925,288.839172 
	C856.010925,281.721100 856.010925,274.809235 856.010925,267.858887 
	C850.513672,267.858887 845.453125,267.858887 840.081726,267.858887 
	C840.081726,275.018585 840.081726,281.794525 840.081726,288.761902 
	C832.543335,288.761902 825.328552,288.761902 817.474792,288.761902 
	C823.550720,274.893188 829.442627,261.444580 835.673035,247.313141 
M692.004822,307.482147 
	C692.004272,295.500305 692.113098,283.517181 691.969971,271.537048 
	C691.846497,261.210724 686.906921,254.125381 677.730530,251.948486 
	C665.618164,249.075089 653.771729,251.163498 641.612976,254.932449 
	C642.593445,258.902222 643.486694,262.518677 644.333496,265.947479 
	C651.090942,265.276642 657.485107,264.311188 663.904846,264.091431 
	C671.307190,263.838043 674.975769,268.295654 674.525269,275.980225 
	C668.272156,276.638977 661.959595,276.867706 655.828491,278.043030 
	C644.030457,280.304749 637.682434,289.352020 639.005859,301.158813 
	C640.183716,311.667694 649.345703,319.791901 660.534607,318.784912 
	C666.121643,318.282104 671.481201,315.251984 677.046326,313.329559 
	C678.542358,321.892792 686.115173,317.053436 692.004822,318.337219 
	C692.004822,314.716003 692.004822,311.594910 692.004822,307.482147 
M579.994873,310.479187 
	C592.220459,320.618713 611.776550,321.990540 626.699402,313.606903 
	C625.746643,309.901031 624.776672,306.127991 623.954590,302.930450 
	C617.103027,303.808960 610.589722,305.249634 604.057983,305.338776 
	C594.415161,305.470398 589.028198,299.371124 589.917786,289.995422 
	C602.430786,289.995422 614.997131,289.995422 627.841675,289.995422 
	C627.841675,284.552826 628.190735,279.562225 627.772400,274.636810 
	C626.756897,262.680054 620.405396,254.673462 610.226196,251.876144 
	C597.861572,248.478271 585.882263,252.277130 578.750427,260.987122 
	C571.155396,270.262695 569.219788,298.377106 579.994873,310.479187 
M793.769836,302.162781 
	C795.538269,288.742706 791.911499,282.208405 779.733337,277.276703 
	C776.518799,275.974915 773.109863,275.161285 769.830322,274.009247 
	C766.924500,272.988464 763.881958,271.590424 764.522522,267.889862 
	C765.189941,264.034424 768.728149,264.566467 771.402710,264.885284 
	C776.716919,265.518738 781.979004,266.590088 787.403381,267.504211 
	C788.241455,263.162079 789.079712,258.818939 790.163208,253.205063 
	C781.769714,252.374802 773.918518,250.983536 766.065552,250.973312 
	C755.702820,250.959824 748.654419,257.682526 747.394592,267.397308 
	C746.132629,277.129425 750.646362,283.567047 760.936768,286.952454 
	C764.690369,288.187286 768.414124,289.557648 772.039368,291.125488 
	C776.004211,292.840149 778.128601,295.971558 776.855164,300.304108 
	C775.675903,304.316315 772.079834,305.338379 768.453430,304.905853 
	C762.163696,304.155701 755.932739,302.912720 749.367126,301.825073 
	C748.378479,305.409302 747.257812,309.472076 746.181030,313.375885 
	C755.949097,318.224884 762.683960,319.577118 772.420227,318.853302 
	C782.910828,318.073456 790.701233,312.197449 793.769836,302.162781 
M728.165039,271.500061 
	C728.165039,256.393646 728.165039,241.287247 728.165039,225.987030 
	C722.288818,225.987030 716.876953,225.987030 711.233276,225.987030 
	C711.233276,256.683289 711.233276,287.237122 711.233276,317.805237 
	C716.977661,317.805237 722.509583,317.805237 728.165039,317.805237 
	C728.165039,302.463837 728.165039,287.481995 728.165039,271.500061 
z"/>
<path fill="#050505" opacity="1.000000" stroke="none" 
	d="
M321.228058,173.259140 
	C327.381165,175.123001 330.830078,179.269104 332.715363,184.688171 
	C337.299194,197.864029 341.571808,211.149094 346.247803,224.291260 
	C347.327118,227.324799 346.809662,228.471039 343.994476,229.988663 
	C334.181305,235.278870 329.663818,246.344666 332.650940,256.697571 
	C335.940033,268.096954 344.998871,275.132324 356.799683,273.897949 
	C362.551300,273.296295 364.073273,275.463867 365.531372,280.087646 
	C369.575439,292.911896 374.266266,305.534027 378.222382,318.383545 
	C381.057953,327.593414 376.900085,334.894196 367.902313,337.991150 
	C322.844238,353.499695 277.787781,369.012909 232.722763,384.501190 
	C231.209167,385.021332 229.609879,385.292084 227.703049,385.765320 
	C224.965286,378.417908 222.355484,371.456879 219.777786,364.483978 
	C217.179153,357.454498 215.949341,356.850342 209.161179,359.374695 
	C202.478714,361.859711 202.179016,362.615356 204.801605,369.712738 
	C207.434143,376.836975 210.016632,383.979736 212.764526,391.507416 
	C201.588516,395.428619 190.983536,399.179016 180.356827,402.866760 
	C174.086868,405.042542 167.821350,407.244354 161.484955,409.212708 
	C150.267014,412.697540 142.785217,408.815735 138.924942,397.699921 
	C134.403061,384.678986 129.880844,371.658173 125.387482,358.627411 
	C125.067802,357.700317 124.983665,356.691986 124.786377,355.703278 
	C127.363869,353.809631 130.041092,352.156799 132.347870,350.090424 
	C139.922211,343.305267 142.219849,331.973755 137.987930,323.208801 
	C133.133728,313.154999 123.841080,307.828278 113.294731,309.671021 
	C109.636246,310.310242 108.271584,309.228943 107.203590,305.992157 
	C103.094116,293.537598 99.063805,281.044250 94.463631,268.767853 
	C89.844650,256.441254 96.084900,247.845520 105.745674,244.830872 
	C122.062920,239.739029 138.083588,233.696762 154.862991,227.832565 
	C157.403336,235.279297 159.854950,242.459808 162.302261,249.641769 
	C164.707886,256.701416 171.961044,258.319275 177.125153,252.643967 
	C178.243256,251.415176 178.532364,248.595413 178.015366,246.862946 
	C175.975525,240.027191 173.540924,233.303940 171.087143,226.599579 
	C170.092194,223.881119 170.390518,222.663406 173.507355,221.591003 
	C219.523239,205.758484 265.465546,189.712112 311.485168,173.890594 
	C314.343872,172.907776 317.699677,173.370895 321.228058,173.259140 
M252.829788,337.262726 
	C255.034332,336.523773 257.387299,336.055023 259.392761,334.953613 
	C260.798828,334.181396 262.388611,332.710724 262.750244,331.265198 
	C263.795044,327.089020 264.249664,322.766113 264.954376,318.503815 
	C268.801544,295.234436 272.658081,271.966614 276.501007,248.696518 
	C277.084320,245.164276 277.613373,241.623047 278.191589,237.932571 
	C265.494781,238.762527 262.690735,241.549774 260.906494,252.725113 
	C257.239655,275.691620 253.252258,298.606812 249.431778,321.548950 
	C248.485489,327.231506 247.672867,332.936310 246.698532,339.284271 
	C249.018600,338.559174 250.558731,338.077820 252.829788,337.262726 
M227.420334,254.795197 
	C219.585831,257.027466 212.073914,259.771423 208.909897,268.319214 
	C203.402283,283.198395 214.995285,298.577881 231.011215,297.727112 
	C243.422928,297.067749 253.075928,286.658752 252.023514,275.069153 
	C250.783905,261.418213 240.968140,252.996109 227.420334,254.795197 
M296.033142,320.364075 
	C306.066589,321.229645 316.704193,315.400391 320.197388,307.122437 
	C323.453796,299.405609 321.040161,288.278687 314.817902,282.322998 
	C308.241028,276.027863 299.313110,275.170593 289.388092,279.881195 
	C280.388519,284.152557 276.417664,291.217834 277.694305,300.687683 
	C279.120331,311.265503 285.758942,318.700500 296.033142,320.364075 
M210.297348,339.326843 
	C207.869980,331.957611 205.473969,324.577881 203.001907,317.223663 
	C201.782272,313.595428 199.472534,312.207916 195.724640,313.917786 
	C194.532120,314.461853 193.223465,314.777954 191.942703,315.096954 
	C187.835327,316.119904 186.648743,318.683838 188.001450,322.544312 
	C190.297623,329.097290 192.510010,335.685760 195.067856,342.136322 
	C195.648514,343.600677 197.684204,345.719818 198.730850,345.551544 
	C202.951782,344.872955 207.730133,344.795593 210.297348,339.326843 
M174.839417,271.303375 
	C174.027710,273.219421 172.157028,275.424438 172.587357,277.001587 
	C174.464294,283.880493 176.747864,290.686340 179.493744,297.264069 
	C180.195023,298.943909 183.093002,300.559540 185.047043,300.641205 
	C187.334778,300.736786 189.768906,299.279877 192.002396,298.210083 
	C194.575699,296.977509 195.543671,295.001343 194.435089,292.053040 
	C192.624176,287.236938 191.071152,282.324280 189.386154,277.460358 
	C185.846420,267.242615 185.840240,267.244751 174.839417,271.303375 
z"/>
<path fill="#222222" opacity="1.000000" stroke="none" 
	d="
M648.461487,388.694000 
	C647.894836,386.955139 647.470642,385.581635 646.984558,384.007874 
	C648.770569,384.007874 650.371582,384.007874 651.810547,384.007874 
	C651.917603,385.881104 652.016296,387.609528 652.115051,389.337982 
	C652.456177,389.450195 652.797363,389.562439 653.138489,389.674652 
	C653.899902,387.828033 654.661316,385.981415 655.505493,383.934143 
	C656.551147,383.934143 658.029297,383.934143 660.236511,383.934143 
	C655.945618,387.386017 664.537109,392.213135 657.977783,395.626068 
	C657.289124,393.603119 656.673401,391.794525 655.842224,389.352966 
	C654.035034,391.741425 652.551208,393.702545 650.471375,396.451324 
	C649.693970,393.373993 649.148987,391.216644 648.461487,388.694000 
z"/>
<path fill="#222222" opacity="1.000000" stroke="none" 
	d="
M530.657410,383.836975 
	C534.159729,384.187622 536.969299,383.459991 534.453064,388.842438 
	C531.282776,395.623901 532.171570,396.039398 524.279297,395.352325 
	C525.075378,391.759521 525.877502,388.139313 526.795776,383.994934 
	C527.289490,383.971741 528.747192,383.903290 530.657410,383.836975 
z"/>
<path fill="#202020" opacity="1.000000" stroke="none" 
	d="
M878.829834,395.448456 
	C875.379517,395.448456 871.929138,395.448456 868.667664,395.448456 
	C869.520203,391.803894 870.380859,388.124908 871.338196,384.032410 
	C873.371094,384.032410 876.440796,384.032410 879.510498,384.032410 
	C879.730042,384.470459 879.949585,384.908508 880.169189,385.346558 
	C878.692627,386.082214 877.216064,386.817902 875.867798,387.489624 
	C878.296875,389.378632 879.428162,391.184448 874.580261,391.243256 
	C875.147644,393.454193 880.868286,389.360992 878.621216,395.187988 
	C878.822205,395.502747 878.829834,395.448456 878.829834,395.448456 
z"/>
<path fill="#202020" opacity="1.000000" stroke="none" 
	d="
M736.624512,388.553680 
	C736.118225,386.925659 735.722412,385.687286 735.203186,384.062653 
	C736.688049,383.975250 738.230408,383.884460 739.831848,383.790192 
	C740.007263,385.734894 740.165894,387.493469 740.324524,389.252014 
	C740.727356,389.334381 741.130127,389.416748 741.532959,389.499084 
	C742.164490,387.779419 742.796021,386.059723 743.547546,384.013306 
	C744.430115,384.013306 745.891846,384.013306 746.717102,384.013306 
	C747.500977,386.449738 748.240112,388.747314 748.979248,391.044891 
	C749.399475,391.023285 749.819641,391.001678 750.239868,390.980072 
	C749.167480,392.558838 748.095032,394.137604 746.487854,396.503693 
	C745.516113,393.717743 744.855652,391.824371 744.064392,389.555847 
	C742.278625,391.820343 740.739197,393.772461 738.644287,396.428986 
	C737.839661,393.274170 737.287292,391.108734 736.624512,388.553680 
z"/>
<path fill="#222222" opacity="1.000000" stroke="none" 
	d="
M890.989563,392.433899 
	C891.879578,392.418182 893.489136,392.589722 893.549438,392.358124 
	C894.220703,389.778503 894.652588,387.136566 895.276855,383.835663 
	C896.220825,383.835663 897.965210,383.804260 899.708008,383.842773 
	C902.582092,383.906311 905.701843,383.943848 905.993713,387.776428 
	C906.281067,391.550110 904.252747,394.258881 900.584473,394.946686 
	C897.754700,395.477264 894.756775,395.111237 891.401489,395.323792 
	C890.969421,395.503693 890.951843,395.553131 891.433960,395.416077 
	C891.602966,394.495117 891.289978,393.711151 890.964600,392.803467 
	C890.952332,392.679749 890.989563,392.433899 890.989563,392.433899 
M901.232666,392.329803 
	C902.409058,389.609039 903.575928,386.890717 898.981445,385.103180 
	C898.289246,388.120239 897.659851,390.863342 896.853149,394.379395 
	C898.677490,393.695465 899.682495,393.318695 901.232666,392.329803 
z"/>
<path fill="#202020" opacity="1.000000" stroke="none" 
	d="
M691.930786,395.239807 
	C687.973022,395.239807 684.015259,395.239807 680.347534,395.239807 
	C681.255737,391.601135 682.171448,387.932617 683.299011,383.415283 
	C685.626221,383.950134 688.691711,384.654602 691.757202,385.359070 
	C691.050537,387.040527 690.343872,388.722015 689.380432,391.014465 
	C689.781738,391.579590 690.611145,392.747650 691.673035,394.289795 
	C691.873962,394.857605 691.882446,395.049591 691.930786,395.239807 
M685.030518,392.842407 
	C685.213501,393.240326 685.396545,393.638214 685.579590,394.036072 
	C685.845520,393.801056 686.111450,393.566010 686.377441,393.330994 
	C685.948303,392.898376 685.519226,392.465729 685.030518,392.842407 
z"/>
<path fill="#222222" opacity="1.000000" stroke="none" 
	d="
M545.991333,392.003052 
	C546.755920,392.846039 547.520569,393.688995 548.666565,394.425964 
	C549.047913,394.319977 549.013062,394.568970 549.013062,394.568970 
	C544.873047,395.033325 540.733093,395.497681 536.758057,395.943542 
	C537.728882,391.867889 538.598145,388.218811 539.574158,384.121185 
	C541.681335,384.121185 544.589844,384.121185 548.976562,384.121185 
	C547.310608,385.775024 546.290955,386.787262 545.358643,387.712830 
	C545.358643,388.750549 545.358643,390.171844 545.517151,391.454041 
	C542.237122,390.213165 542.237122,390.213165 541.058716,394.920685 
	C543.231445,393.635529 544.611389,392.819275 545.991333,392.003052 
z"/>
<path fill="#2D2D2D" opacity="1.000000" stroke="none" 
	d="
M628.176270,394.593536 
	C629.364502,392.835693 630.869202,391.204834 631.641479,389.280090 
	C632.265198,387.725586 632.005493,385.816650 632.142029,384.007629 
	C635.077271,384.007629 638.015259,384.007629 641.434998,384.007629 
	C640.430664,386.510803 639.558228,388.685303 638.890442,390.349731 
	C637.215881,390.969543 635.794678,391.495544 634.373535,392.021576 
	C634.562988,392.664978 634.752502,393.308411 634.942017,393.951813 
	C636.669250,393.665680 638.396484,393.379547 640.124268,393.093323 
	C638.496399,396.134094 634.101257,396.720337 628.632263,394.549011 
	C628.198425,394.496185 628.176270,394.593536 628.176270,394.593536 
M635.912781,386.821289 
	C637.720520,388.974426 637.949402,388.904266 639.993958,384.908356 
	C638.325317,385.323669 637.210876,385.601013 635.912781,386.821289 
z"/>
<path fill="#1B1B1B" opacity="1.000000" stroke="none" 
	d="
M704.049622,393.843933 
	C706.735596,392.659851 707.915344,389.270264 707.329041,383.855713 
	C709.281738,383.855713 711.290161,383.491852 713.084412,383.955933 
	C714.956787,384.440186 717.521729,385.336426 718.132812,386.760864 
	C718.775818,388.259796 717.966919,390.940613 716.903381,392.497894 
	C714.574707,395.907654 708.720154,396.552032 704.295288,394.051300 
	C704.061523,393.757111 704.049622,393.843933 704.049622,393.843933 
M709.989502,392.367249 
	C710.397888,392.872375 710.806274,393.377502 711.214600,393.882690 
	C712.466125,392.420013 714.315735,391.119720 714.771484,389.440979 
	C715.109436,388.196014 713.636597,386.459442 712.970337,384.941864 
	C712.441101,385.102875 711.911804,385.263885 711.382507,385.424896 
	C710.923828,387.453064 710.465088,389.481201 709.989502,392.367249 
z"/>
<path fill="#161616" opacity="1.000000" stroke="none" 
	d="
M627.847656,394.344238 
	C628.176270,394.593536 628.198425,394.496185 628.214478,394.447968 
	C626.434875,394.759033 624.639343,395.118317 622.655762,394.927399 
	C623.041931,393.095734 623.616150,391.814240 624.356750,390.161285 
	C619.431885,390.694916 619.401978,390.748108 620.837280,394.897217 
	C619.101990,395.184967 617.366699,395.472748 615.487671,395.784363 
	C616.507202,391.742035 617.413940,388.146851 618.436707,384.091858 
	C619.027344,384.091858 620.757874,384.091858 622.524902,384.091858 
	C622.020752,385.485107 621.530151,386.841003 621.039490,388.196869 
	C621.545593,388.494293 622.051758,388.791718 622.557861,389.089142 
	C623.462952,387.717255 624.367981,386.345337 625.273071,384.973450 
	C624.921387,384.672577 624.569702,384.371735 624.217957,384.070862 
	C625.996887,384.070862 627.775757,384.070862 628.928589,384.070862 
	C628.461670,387.391449 627.990295,390.743195 627.847656,394.344238 
z"/>
<path fill="#1B1B1B" opacity="1.000000" stroke="none" 
	d="
M837.892944,386.773407 
	C837.749695,385.619751 837.541687,384.873322 837.257568,383.853638 
	C839.136414,383.853638 841.087158,383.415894 842.708435,383.959961 
	C844.939087,384.708435 848.286194,385.828735 848.726135,387.449219 
	C849.659485,390.886749 847.555237,393.966248 843.869690,394.901947 
	C841.198181,395.580231 838.334900,395.503174 835.520264,395.766388 
	C836.356018,392.657410 837.092102,389.919006 837.892944,386.773407 
M845.067871,387.010010 
	C844.124817,386.318420 843.181824,385.626831 841.778564,384.597717 
	C841.061462,388.213623 840.506409,391.012543 839.909302,394.023438 
	C844.782166,393.852570 845.227905,390.988800 845.067871,387.010010 
z"/>
<path fill="#1B1B1B" opacity="1.000000" stroke="none" 
	d="
M890.655945,392.229553 
	C890.989563,392.433899 890.952332,392.679749 890.934387,393.266296 
	C890.928223,394.419617 890.940063,394.986359 890.951843,395.553131 
	C890.951843,395.553131 890.969421,395.503693 890.961365,395.478729 
	C887.217773,395.287750 883.482239,395.121704 879.288269,395.202057 
	C878.829834,395.448456 878.822205,395.502747 878.804199,395.526489 
	C883.037231,392.702576 882.580261,388.387665 882.648987,384.183289 
	C885.215271,384.183289 888.083130,384.183289 890.950989,384.183289 
	C891.031738,384.452209 891.112549,384.721161 891.193359,384.990082 
	C889.981934,385.645447 888.770569,386.300812 886.939880,387.291229 
	C890.377136,388.693481 890.239563,390.160217 886.971741,391.824249 
	C888.419312,391.911072 889.370850,391.968140 890.655945,392.229553 
z"/>
<path fill="#1B1B1B" opacity="1.000000" stroke="none" 
	d="
M666.540894,388.619354 
	C668.216309,386.850525 669.570496,384.716217 671.377502,384.215271 
	C674.035461,383.478455 677.484131,382.623291 678.923462,386.597900 
	C680.069946,389.763855 677.662781,394.160339 674.159973,395.187042 
	C670.744263,396.188141 667.868530,395.460724 666.423584,391.878326 
	C666.088867,391.048462 666.405396,389.955902 666.540894,388.619354 
M670.273926,391.871521 
	C671.408264,392.275269 672.542603,392.679016 673.676941,393.082764 
	C674.263245,390.605957 674.849609,388.129120 675.435913,385.652313 
	C674.533875,385.382202 673.631836,385.112122 672.729797,384.842041 
	C671.853516,386.944366 670.977295,389.046692 670.273926,391.871521 
z"/>
<path fill="#202020" opacity="1.000000" stroke="none" 
	d="
M854.942932,392.467377 
	C855.501892,389.602997 856.048706,387.139679 856.744690,384.004425 
	C860.823303,382.279938 860.999756,387.849487 864.348572,389.427216 
	C864.348572,387.539368 864.348572,385.879425 864.348572,384.035767 
	C865.569641,384.035767 866.825684,384.035767 867.904541,384.035767 
	C866.805969,387.972351 865.741150,391.787842 864.442627,396.440887 
	C862.042603,393.476746 860.144287,391.132294 857.563843,387.945374 
	C857.563843,390.804382 857.563843,392.670532 857.563843,394.872437 
	C856.296631,394.872437 854.767456,394.872437 853.138184,394.872437 
	C853.785400,394.148926 854.358093,393.508667 854.942932,392.467377 
z"/>
<path fill="#1B1B1B" opacity="1.000000" stroke="none" 
	d="
M793.797180,393.850647 
	C794.199585,391.844269 794.488647,390.149506 795.060425,388.556244 
	C795.581299,387.104706 796.091125,384.990997 797.172607,384.545715 
	C799.016968,383.786377 801.305847,384.065308 803.405212,384.096191 
	C803.503357,384.097626 803.574646,385.925812 803.637268,386.655823 
	C801.801575,386.385651 800.412415,386.181213 799.023254,385.976776 
	C799.830139,386.955475 800.485535,388.137329 801.473206,388.873413 
	C804.088318,390.822418 803.828247,393.207092 801.349060,394.191528 
	C799.175781,395.054565 796.346497,394.265717 793.797180,393.850647 
z"/>
<path fill="#2D2D2D" opacity="1.000000" stroke="none" 
	d="
M781.194214,384.950989 
	C785.158875,384.402710 789.123535,383.854401 793.709229,383.220245 
	C793.529968,385.083649 793.423462,386.190643 793.250671,387.987152 
	C792.053772,386.616241 791.340027,385.798737 789.766724,383.996643 
	C789.030273,388.382507 788.479492,391.662994 787.854492,395.385254 
	C786.765503,395.385254 784.685730,395.385254 783.177490,395.385254 
	C784.106079,392.214722 785.099854,388.821625 786.496399,384.053284 
	C784.105713,385.823883 782.952515,386.678009 781.362854,387.855347 
	C781.504272,386.700134 781.581604,386.068237 781.463623,385.173981 
	C781.268250,384.911621 781.194214,384.950989 781.194214,384.950989 
z"/>
<path fill="#1B1B1B" opacity="1.000000" stroke="none" 
	d="
M549.307251,394.813049 
	C549.013062,394.568970 549.047913,394.319977 549.035767,394.194885 
	C549.403992,391.870728 549.676086,389.646057 550.188782,387.478271 
	C551.097351,383.636322 554.230713,383.530792 557.224731,383.847076 
	C557.956482,383.924408 558.519714,385.596985 559.887451,387.601807 
	C556.999817,386.415955 555.791748,385.919830 554.583679,385.423706 
	C554.933411,386.440613 555.171631,387.514984 555.659241,388.460815 
	C556.370300,389.840240 558.239624,391.835938 557.889465,392.319672 
	C556.872986,393.723846 555.105530,394.796417 553.418823,395.426910 
	C552.342773,395.829163 550.886963,395.215393 549.307251,394.813049 
z"/>
<path fill="#2D2D2D" opacity="1.000000" stroke="none" 
	d="
M610.533936,394.176971 
	C608.786682,395.019257 606.759277,395.572723 604.791748,396.109833 
	C605.907227,392.181580 606.856873,388.837341 607.806519,385.493103 
	C607.481201,385.332214 607.155823,385.171356 606.830444,385.010468 
	C605.831116,385.817871 604.831726,386.625275 603.832336,387.432678 
	C603.655273,386.916138 603.478271,386.399597 603.301208,385.883057 
	C606.239075,381.304962 611.311951,385.089050 615.817139,383.302551 
	C615.379089,385.311859 615.159241,386.320435 614.847107,387.752167 
	C613.854797,386.593109 613.173218,385.796997 611.446838,383.780640 
	C610.949829,387.991241 610.601807,390.939697 610.533936,394.176971 
z"/>
<path fill="#2D2D2D" opacity="1.000000" stroke="none" 
	d="
M561.488647,394.315491 
	C562.896851,391.187683 564.009583,388.323029 565.122253,385.458405 
	C564.777283,385.271942 564.432251,385.085480 564.087219,384.899017 
	C563.000732,385.719910 561.914246,386.540802 560.780762,387.397217 
	C561.017700,383.570099 562.229248,383.044128 570.001099,383.891846 
	C571.033569,384.004456 571.942078,385.252960 572.908020,385.975433 
	C572.493530,386.441132 572.079041,386.906830 571.664551,387.372498 
	C571.005188,386.576935 570.345825,385.781372 568.625427,383.705658 
	C567.907532,388.299500 567.397583,391.563019 566.750854,395.701538 
	C565.490173,395.446838 563.341675,395.012726 561.488647,394.315491 
z"/>
<path fill="#2D2D2D" opacity="1.000000" stroke="none" 
	d="
M692.393555,395.255737 
	C691.882446,395.049591 691.873962,394.857605 691.937500,394.522583 
	C697.072327,392.349945 695.016846,387.829803 695.747437,384.014923 
	C697.397278,384.014923 699.283264,384.014923 700.661926,384.014923 
	C699.796814,387.048462 698.948730,390.022278 697.995605,393.364624 
	C700.295044,393.364624 702.006653,393.364624 703.883911,393.604279 
	C704.049622,393.843933 704.061523,393.757111 704.101685,393.728180 
	C700.762512,396.968719 696.736694,395.598389 692.393555,395.255737 
z"/>
<path fill="#222222" opacity="1.000000" stroke="none" 
	d="
M762.686401,387.196045 
	C763.474792,390.031708 764.077454,392.512848 764.758911,395.318268 
	C763.102661,395.413910 761.236267,395.521729 759.271362,395.635223 
	C759.478821,394.349426 759.617188,393.491516 759.822327,392.220093 
	C757.754639,392.501801 756.090149,392.728577 754.079041,393.002563 
	C755.623657,390.324799 756.870056,387.875977 758.416565,385.634125 
	C758.983215,384.812592 760.260925,384.481506 761.214233,383.926697 
	C761.643066,384.898254 762.071899,385.869843 762.686401,387.196045 
z"/>
<path fill="#202020" opacity="1.000000" stroke="none" 
	d="
M910.235474,390.741364 
	C909.909424,389.061676 908.827820,386.304138 909.398682,385.903961 
	C911.127991,384.691742 913.469971,384.226013 915.639099,383.868896 
	C916.112366,383.791016 916.858826,385.372589 918.036133,386.922974 
	C915.410461,386.268555 913.912598,385.895264 912.414795,385.521973 
	C912.279785,385.918671 912.144775,386.315338 912.009766,386.712036 
	C912.584900,387.246002 913.217468,387.731049 913.723267,388.324127 
	C914.762512,389.542755 915.733948,390.819214 916.733276,392.071899 
	C915.412476,393.124176 914.240295,394.606964 912.735474,395.126556 
	C910.543091,395.883575 909.026672,394.500732 908.281006,392.374390 
	C908.241821,392.262634 908.261902,392.061829 908.336975,391.994415 
	C908.447754,391.894958 908.632751,391.878082 908.810608,392.157349 
	C910.079895,392.993042 911.324707,393.497406 912.569519,394.001770 
	C912.784363,393.441498 912.999268,392.881226 913.214172,392.320923 
	C912.221252,391.794403 911.228394,391.267883 910.235474,390.741364 
z"/>
<path fill="#222222" opacity="1.000000" stroke="none" 
	d="
M818.606628,391.023407 
	C819.162598,392.539734 819.519348,393.738525 819.984192,395.300415 
	C818.106201,395.411194 816.243225,395.521118 814.276123,395.637177 
	C814.481934,394.354523 814.619446,393.497253 814.824158,392.221741 
	C812.760803,392.503937 811.095276,392.731750 808.661682,393.064606 
	C811.157104,389.454376 813.268372,386.399933 816.218079,382.132538 
	C817.230957,386.098816 817.819153,388.402313 818.606628,391.023407 
z"/>
<path fill="#202020" opacity="1.000000" stroke="none" 
	d="
M781.293701,384.878296 
	C780.311035,386.364594 779.027588,387.774475 778.366638,389.432495 
	C777.591797,391.375946 777.358643,393.535339 776.777527,396.099884 
	C773.764587,393.056000 771.190918,390.455902 768.019531,387.251892 
	C768.049988,386.918610 768.177612,385.521790 768.457947,382.453339 
	C771.463379,385.027313 773.736816,386.974335 776.425781,389.277222 
	C776.425781,387.507446 776.425781,385.830292 776.425781,383.756500 
	C777.872559,383.938324 779.299194,384.117615 780.960022,384.623962 
	C781.194214,384.950989 781.268250,384.911621 781.293701,384.878296 
z"/>
<path fill="#161616" opacity="1.000000" stroke="none" 
	d="
M587.497681,389.229858 
	C587.015564,390.624390 586.846191,391.862122 586.676758,393.099884 
	C586.162537,393.040649 585.648315,392.981415 585.134033,392.922180 
	C585.524536,390.117676 585.914978,387.313171 586.375732,384.003998 
	C590.778259,382.919708 591.157288,387.583038 593.471191,389.670502 
	C594.116516,389.173553 594.825989,388.627258 595.270935,388.284668 
	C595.122070,390.526001 594.962280,392.931580 594.728638,396.449310 
	C591.862061,393.392944 589.836243,391.233002 587.497681,389.229858 
z"/>
<path fill="#161616" opacity="1.000000" stroke="none" 
	d="
M832.905090,391.327942 
	C832.451599,392.996094 832.063965,394.319977 831.465759,396.362946 
	C827.902710,392.146820 824.946167,388.648346 821.425476,384.482300 
	C827.677185,382.949585 828.368774,387.113159 830.584595,389.670776 
	C831.202271,388.904205 831.902161,388.035492 832.971008,386.708862 
	C832.971008,388.483978 832.971008,389.733795 832.905090,391.327942 
z"/>
<path fill="#222222" opacity="1.000000" stroke="none" 
	d="
M582.651001,385.978210 
	C582.049988,389.148376 581.520081,391.939148 580.859314,395.419434 
	C579.850525,395.467804 578.128235,395.550385 576.640137,395.621735 
	C577.506104,391.739410 578.310547,388.132751 579.213562,384.084381 
	C580.069519,384.084381 581.920288,384.084381 583.705261,384.084381 
	C583.827576,384.426086 583.963379,384.674377 583.921570,384.709106 
	C583.539368,385.026855 583.126282,385.307434 582.651001,385.978210 
z"/>
<path fill="#B6B6B6" opacity="1.000000" stroke="none" 
	d="
M621.139221,394.924133 
	C619.401978,390.748108 619.431885,390.694916 624.356750,390.161285 
	C623.616150,391.814240 623.041931,393.095734 622.257324,394.676361 
	C621.844971,394.967377 621.643066,394.959198 621.139221,394.924133 
z"/>
<path fill="#F7F7F7" opacity="1.000000" stroke="none" 
	d="
M491.531494,240.010254 
	C491.531525,235.052658 491.531525,230.592514 491.531525,224.852631 
	C506.489349,225.840637 521.103516,225.490921 535.173828,228.087814 
	C550.695679,230.952637 561.816406,246.446228 563.257568,262.201202 
	C564.248840,273.037262 563.154785,283.404907 558.401123,293.198578 
	C551.229675,307.973480 539.159363,316.329529 522.982178,317.752777 
	C512.749084,318.653076 502.372437,317.920898 491.531464,317.920898 
	C491.531464,292.077026 491.531464,266.292358 491.531494,240.010254 
M543.383484,262.278961 
	C540.474365,245.397110 530.578613,239.063507 510.255859,241.217072 
	C510.255859,261.706665 510.255859,282.215759 510.255859,302.704163 
	C524.696167,303.840424 534.076965,299.297211 539.324219,288.355347 
	C543.133972,280.411133 544.342285,271.919800 543.383484,262.278961 
z"/>
<path fill="#F4F4F4" opacity="1.000000" stroke="none" 
	d="
M940.000366,225.773422 
	C943.150452,225.773422 945.805908,225.773422 948.703979,225.773422 
	C948.863708,226.648056 949.126770,227.416702 949.126465,228.185242 
	C949.119263,247.999924 949.223083,267.816071 949.013855,287.628845 
	C948.823669,305.638550 938.155884,317.241211 920.208191,318.739563 
	C907.782227,319.776947 895.905396,318.258850 887.133667,307.837524 
	C881.921021,301.644653 880.424744,294.063782 880.308533,286.402802 
	C880.005859,266.450623 880.206726,246.490799 880.206726,226.154205 
	C886.631653,226.154205 892.838806,226.154205 899.519531,226.154205 
	C899.519531,228.165054 899.508728,230.131104 899.521179,232.097015 
	C899.642090,251.236008 899.392700,270.387573 900.034851,289.509125 
	C900.404785,300.528137 909.485840,306.160645 919.972717,302.981567 
	C926.091492,301.126678 929.947693,294.825623 929.974426,286.242737 
	C930.031494,267.926117 929.992004,249.609192 929.992065,231.292389 
	C929.992065,229.648117 929.992004,228.003830 929.992004,225.773422 
	C933.323059,225.773422 936.414429,225.773422 940.000366,225.773422 
z"/>
<path fill="#F2F2F2" opacity="1.000000" stroke="none" 
	d="
M835.503784,247.654541 
	C829.442627,261.444580 823.550720,274.893188 817.474792,288.761902 
	C825.328552,288.761902 832.543335,288.761902 840.081726,288.761902 
	C840.081726,281.794525 840.081726,275.018585 840.081726,267.858887 
	C845.453125,267.858887 850.513672,267.858887 856.010925,267.858887 
	C856.010925,274.809235 856.010925,281.721100 856.010925,288.839172 
	C859.054138,288.839172 861.676697,288.839172 864.656372,288.839172 
	C864.656372,293.610107 864.656372,298.186523 864.656372,303.263641 
	C862.126404,303.399658 859.384460,303.547089 856.106567,303.723328 
	C856.106567,308.398926 856.106567,313.116180 856.106567,317.998962 
	C850.633301,317.998962 845.693542,317.998962 840.305664,317.998962 
	C840.305664,313.351562 840.305664,308.763519 840.305664,303.636963 
	C826.657166,303.636963 813.438232,303.636963 800.263306,303.636963 
	C799.001343,296.030975 800.180054,289.431793 803.170410,282.874481 
	C811.001648,265.701965 818.586731,248.415436 826.086975,231.095139 
	C827.805298,227.127121 829.923828,224.971222 834.602600,225.673431 
	C837.850098,226.160828 841.229797,225.767212 845.229858,225.767212 
	C841.909668,233.252670 838.791382,240.282913 835.503784,247.654541 
z"/>
<path fill="#F5F5F5" opacity="1.000000" stroke="none" 
	d="
M692.004822,307.977966 
	C692.004822,311.594910 692.004822,314.716003 692.004822,318.337219 
	C686.115173,317.053436 678.542358,321.892792 677.046326,313.329559 
	C671.481201,315.251984 666.121643,318.282104 660.534607,318.784912 
	C649.345703,319.791901 640.183716,311.667694 639.005859,301.158813 
	C637.682434,289.352020 644.030457,280.304749 655.828491,278.043030 
	C661.959595,276.867706 668.272156,276.638977 674.525269,275.980225 
	C674.975769,268.295654 671.307190,263.838043 663.904846,264.091431 
	C657.485107,264.311188 651.090942,265.276642 644.333496,265.947479 
	C643.486694,262.518677 642.593445,258.902222 641.612976,254.932449 
	C653.771729,251.163498 665.618164,249.075089 677.730530,251.948486 
	C686.906921,254.125381 691.846497,261.210724 691.969971,271.537048 
	C692.113098,283.517181 692.004272,295.500305 692.004822,307.977966 
M673.440491,299.588440 
	C674.039673,296.245148 674.638855,292.901825 675.373901,288.800232 
	C670.231018,289.216888 666.264343,288.900482 662.774109,290.041443 
	C660.377625,290.824799 657.354431,293.395630 656.949097,295.597717 
	C656.476379,298.166443 657.900818,301.735992 659.680176,303.904907 
	C661.977478,306.705231 665.464478,305.571594 668.272217,303.860992 
	C669.946777,302.840729 671.361023,301.393127 673.440491,299.588440 
z"/>
<path fill="#F4F4F4" opacity="1.000000" stroke="none" 
	d="
M579.781067,310.187408 
	C569.219788,298.377106 571.155396,270.262695 578.750427,260.987122 
	C585.882263,252.277130 597.861572,248.478271 610.226196,251.876144 
	C620.405396,254.673462 626.756897,262.680054 627.772400,274.636810 
	C628.190735,279.562225 627.841675,284.552826 627.841675,289.995422 
	C614.997131,289.995422 602.430786,289.995422 589.917786,289.995422 
	C589.028198,299.371124 594.415161,305.470398 604.057983,305.338776 
	C610.589722,305.249634 617.103027,303.808960 623.954590,302.930450 
	C624.776672,306.127991 625.746643,309.901031 626.699402,313.606903 
	C611.776550,321.990540 592.220459,320.618713 579.781067,310.187408 
M611.187195,275.058716 
	C610.306946,266.570862 606.915649,263.366760 599.301147,263.828644 
	C593.041443,264.208313 589.468323,269.434357 589.786560,278.004211 
	C596.233948,278.004211 602.693970,278.071838 609.148315,277.910339 
	C609.876160,277.892090 610.571716,276.580597 611.187195,275.058716 
z"/>
<path fill="#F1F1F1" opacity="1.000000" stroke="none" 
	d="
M793.654175,302.543640 
	C790.701233,312.197449 782.910828,318.073456 772.420227,318.853302 
	C762.683960,319.577118 755.949097,318.224884 746.181030,313.375885 
	C747.257812,309.472076 748.378479,305.409302 749.367126,301.825073 
	C755.932739,302.912720 762.163696,304.155701 768.453430,304.905853 
	C772.079834,305.338379 775.675903,304.316315 776.855164,300.304108 
	C778.128601,295.971558 776.004211,292.840149 772.039368,291.125488 
	C768.414124,289.557648 764.690369,288.187286 760.936768,286.952454 
	C750.646362,283.567047 746.132629,277.129425 747.394592,267.397308 
	C748.654419,257.682526 755.702820,250.959824 766.065552,250.973312 
	C773.918518,250.983536 781.769714,252.374802 790.163208,253.205063 
	C789.079712,258.818939 788.241455,263.162079 787.403381,267.504211 
	C781.979004,266.590088 776.716919,265.518738 771.402710,264.885284 
	C768.728149,264.566467 765.189941,264.034424 764.522522,267.889862 
	C763.881958,271.590424 766.924500,272.988464 769.830322,274.009247 
	C773.109863,275.161285 776.518799,275.974915 779.733337,277.276703 
	C791.911499,282.208405 795.538269,288.742706 793.654175,302.543640 
z"/>
<path fill="#F9F9F9" opacity="1.000000" stroke="none" 
	d="
M728.165039,272.000092 
	C728.165039,287.481995 728.165039,302.463837 728.165039,317.805237 
	C722.509583,317.805237 716.977661,317.805237 711.233276,317.805237 
	C711.233276,287.237122 711.233276,256.683289 711.233276,225.987030 
	C716.876953,225.987030 722.288818,225.987030 728.165039,225.987030 
	C728.165039,241.287247 728.165039,256.393646 728.165039,272.000092 
z"/>
<path fill="#F3F3F3" opacity="1.000000" stroke="none" 
	d="
M252.464325,337.429626 
	C250.558731,338.077820 249.018600,338.559174 246.698532,339.284271 
	C247.672867,332.936310 248.485489,327.231506 249.431778,321.548950 
	C253.252258,298.606812 257.239655,275.691620 260.906494,252.725113 
	C262.690735,241.549774 265.494781,238.762527 278.191589,237.932571 
	C277.613373,241.623047 277.084320,245.164276 276.501007,248.696518 
	C272.658081,271.966614 268.801544,295.234436 264.954376,318.503815 
	C264.249664,322.766113 263.795044,327.089020 262.750244,331.265198 
	C262.388611,332.710724 260.798828,334.181396 259.392761,334.953613 
	C257.387299,336.055023 255.034332,336.523773 252.464325,337.429626 
z"/>
<path fill="#F4F4F4" opacity="1.000000" stroke="none" 
	d="
M227.824600,254.724060 
	C240.968140,252.996109 250.783905,261.418213 252.023514,275.069153 
	C253.075928,286.658752 243.422928,297.067749 231.011215,297.727112 
	C214.995285,298.577881 203.402283,283.198395 208.909897,268.319214 
	C212.073914,259.771423 219.585831,257.027466 227.824600,254.724060 
M235.847137,286.430939 
	C238.658829,280.695221 236.042999,269.060944 230.591827,265.902191 
	C228.919067,264.932892 225.040512,265.406372 223.654037,266.749268 
	C219.458984,270.812500 225.623886,286.860718 231.475204,287.716064 
	C232.669922,287.890656 233.991776,287.195526 235.847137,286.430939 
z"/>
<path fill="#F4F4F4" opacity="1.000000" stroke="none" 
	d="
M295.624451,320.337585 
	C285.758942,318.700500 279.120331,311.265503 277.694305,300.687683 
	C276.417664,291.217834 280.388519,284.152557 289.388092,279.881195 
	C299.313110,275.170593 308.241028,276.027863 314.817902,282.322998 
	C321.040161,288.278687 323.453796,299.405609 320.197388,307.122437 
	C316.704193,315.400391 306.066589,321.229645 295.624451,320.337585 
M298.962708,287.310333 
	C293.471680,287.523193 291.255524,289.438965 292.287689,294.517273 
	C293.221924,299.113770 295.048157,303.655792 297.278381,307.791931 
	C298.039276,309.203033 301.499176,310.246948 303.218475,309.739502 
	C304.857361,309.255829 306.876678,306.556305 306.918060,304.788574 
	C307.073914,298.133057 305.068909,292.078918 298.962708,287.310333 
z"/>
<path fill="#F2F2F2" opacity="1.000000" stroke="none" 
	d="
M210.218002,339.725586 
	C207.730133,344.795593 202.951782,344.872955 198.730850,345.551544 
	C197.684204,345.719818 195.648514,343.600677 195.067856,342.136322 
	C192.510010,335.685760 190.297623,329.097290 188.001450,322.544312 
	C186.648743,318.683838 187.835327,316.119904 191.942703,315.096954 
	C193.223465,314.777954 194.532120,314.461853 195.724640,313.917786 
	C199.472534,312.207916 201.782272,313.595428 203.001907,317.223663 
	C205.473969,324.577881 207.869980,331.957611 210.218002,339.725586 
z"/>
<path fill="#F3F3F3" opacity="1.000000" stroke="none" 
	d="
M175.194275,271.152527 
	C185.840240,267.244751 185.846420,267.242615 189.386154,277.460358 
	C191.071152,282.324280 192.624176,287.236938 194.435089,292.053040 
	C195.543671,295.001343 194.575699,296.977509 192.002396,298.210083 
	C189.768906,299.279877 187.334778,300.736786 185.047043,300.641205 
	C183.093002,300.559540 180.195023,298.943909 179.493744,297.264069 
	C176.747864,290.686340 174.464294,283.880493 172.587357,277.001587 
	C172.157028,275.424438 174.027710,273.219421 175.194275,271.152527 
z"/>
<path fill="#F1F1F1" opacity="1.000000" stroke="none" 
	d="
M900.960083,392.635864 
	C899.682495,393.318695 898.677490,393.695465 896.853149,394.379395 
	C897.659851,390.863342 898.289246,388.120239 898.981445,385.103180 
	C903.575928,386.890717 902.409058,389.609039 900.960083,392.635864 
z"/>
<path fill="#F9F9F9" opacity="1.000000" stroke="none" 
	d="
M891.433960,395.416077 
	C890.940063,394.986359 890.928223,394.419617 890.946655,393.390015 
	C891.289978,393.711151 891.602966,394.495117 891.433960,395.416077 
z"/>
<path fill="#F9F9F9" opacity="1.000000" stroke="none" 
	d="
M685.060303,392.437744 
	C685.519226,392.465729 685.948303,392.898376 686.377441,393.330994 
	C686.111450,393.566010 685.845520,393.801056 685.579590,394.036072 
	C685.396545,393.638214 685.213501,393.240326 685.060303,392.437744 
z"/>
<path fill="#F9F9F9" opacity="1.000000" stroke="none" 
	d="
M546.013550,392.038940 
	C544.611389,392.819275 543.231445,393.635529 541.058716,394.920685 
	C542.237122,390.213165 542.237122,390.213165 545.867188,391.735565 
	C546.058716,392.156189 546.035828,392.074860 546.013550,392.038940 
z"/>
<path fill="#F9F9F9" opacity="1.000000" stroke="none" 
	d="
M636.004639,386.349854 
	C637.210876,385.601013 638.325317,385.323669 639.993958,384.908356 
	C637.949402,388.904266 637.720520,388.974426 636.004639,386.349854 
z"/>
<path fill="#DDDDDD" opacity="1.000000" stroke="none" 
	d="
M709.997925,391.938293 
	C710.465088,389.481201 710.923828,387.453064 711.382507,385.424896 
	C711.911804,385.263885 712.441101,385.102875 712.970337,384.941864 
	C713.636597,386.459442 715.109436,388.196014 714.771484,389.440979 
	C714.315735,391.119720 712.466125,392.420013 711.214600,393.882660 
	C710.806274,393.377502 710.397888,392.872375 709.997925,391.938293 
z"/>
<path fill="#DDDDDD" opacity="1.000000" stroke="none" 
	d="
M845.158081,387.407440 
	C845.227905,390.988800 844.782166,393.852570 839.909302,394.023438 
	C840.506409,391.012543 841.061462,388.213623 841.778564,384.597717 
	C843.181824,385.626831 844.124817,386.318420 845.158081,387.407440 
z"/>
<path fill="#DDDDDD" opacity="1.000000" stroke="none" 
	d="
M670.187500,391.510254 
	C670.977295,389.046692 671.853516,386.944366 672.729797,384.842041 
	C673.631836,385.112122 674.533875,385.382202 675.435913,385.652313 
	C674.849609,388.129120 674.263245,390.605957 673.676941,393.082764 
	C672.542603,392.679016 671.408264,392.275269 670.187500,391.510254 
z"/>
<path fill="#F9F9F9" opacity="1.000000" stroke="none" 
	d="
M909.959106,390.997406 
	C911.228394,391.267883 912.221252,391.794403 913.214172,392.320923 
	C912.999268,392.881226 912.784363,393.441498 912.569519,394.001770 
	C911.324707,393.497406 910.079895,392.993042 908.980835,392.125183 
	C909.311951,391.592285 909.497375,391.422852 909.959106,390.997406 
z"/>
<path fill="#050505" opacity="1.000000" stroke="none" 
	d="
M543.437256,262.712463 
	C544.342285,271.919800 543.133972,280.411133 539.324219,288.355347 
	C534.076965,299.297211 524.696167,303.840424 510.255859,302.704163 
	C510.255859,282.215759 510.255859,261.706665 510.255859,241.217072 
	C530.578613,239.063507 540.474365,245.397110 543.437256,262.712463 
z"/>
<path fill="#0E0E0E" opacity="1.000000" stroke="none" 
	d="
M673.166382,299.863037 
	C671.361023,301.393127 669.946777,302.840729 668.272217,303.860992 
	C665.464478,305.571594 661.977478,306.705231 659.680176,303.904907 
	C657.900818,301.735992 656.476379,298.166443 656.949097,295.597717 
	C657.354431,293.395630 660.377625,290.824799 662.774109,290.041443 
	C666.264343,288.900482 670.231018,289.216888 675.373901,288.800232 
	C674.638855,292.901825 674.039673,296.245148 673.166382,299.863037 
z"/>
<path fill="#0A0A0A" opacity="1.000000" stroke="none" 
	d="
M611.234741,275.463745 
	C610.571716,276.580597 609.876160,277.892090 609.148315,277.910339 
	C602.693970,278.071838 596.233948,278.004211 589.786560,278.004211 
	C589.468323,269.434357 593.041443,264.208313 599.301147,263.828644 
	C606.915649,263.366760 610.306946,266.570862 611.234741,275.463745 
z"/>
<path fill="#0E0E0E" opacity="1.000000" stroke="none" 
	d="
M235.551086,286.666138 
	C233.991776,287.195526 232.669922,287.890656 231.475204,287.716064 
	C225.623886,286.860718 219.458984,270.812500 223.654037,266.749268 
	C225.040512,265.406372 228.919067,264.932892 230.591827,265.902191 
	C236.042999,269.060944 238.658829,280.695221 235.551086,286.666138 
z"/>
<path fill="#0A0A0A" opacity="1.000000" stroke="none" 
	d="
M299.302338,287.475220 
	C305.068909,292.078918 307.073914,298.133057 306.918060,304.788574 
	C306.876678,306.556305 304.857361,309.255829 303.218475,309.739502 
	C301.499176,310.246948 298.039276,309.203033 297.278381,307.791931 
	C295.048157,303.655792 293.221924,299.113770 292.287689,294.517273 
	C291.255524,289.438965 293.471680,287.523193 299.302338,287.475220 
z"/>
</svg>